<svg width="30" height="30" viewBox="0 0 30 30" fill="none" xmlns="http://www.w3.org/2000/svg">
<g clip-path="url(#clip0)">
<path d="M25.0106 20.9171H1.51863C0.680008 20.9171 0 20.2373 0 19.3984V6.90926C0 6.07063 0.680008 5.39062 1.51863 5.39062H25.0106C25.8492 5.39062 26.5292 6.07063 26.5292 6.90926V19.3984C26.5292 20.2373 25.8492 20.9171 25.0106 20.9171Z" fill="#10BB67"/>
<path d="M25.0106 5.39062H24.9433V17.6559C24.9433 18.5335 24.2319 19.2448 23.3542 19.2448H0V19.3984C0 20.2373 0.680008 20.9171 1.51863 20.9171H25.0106C25.8492 20.9171 26.5292 20.2373 26.5292 19.3984V6.90926C26.5292 6.07063 25.8492 5.39062 25.0106 5.39062Z" fill="#0D9653"/>
<path d="M2.70621 10.1724C2.44803 10.2246 2.26355 10.451 2.26355 10.7142V15.3577C2.26355 15.6205 2.44872 15.8475 2.70621 15.8995C3.646 16.089 4.36629 16.87 4.47478 17.8267C4.50636 18.1064 4.74234 18.3165 5.02386 18.3165H21.5052C21.786 18.3165 22.0227 18.1059 22.0543 17.8267C22.1628 16.87 22.8831 16.089 23.8228 15.8995C24.081 15.8473 24.2655 15.6212 24.2655 15.3577V10.7142C24.2655 10.4514 24.0806 10.2246 23.8228 10.1724C22.949 9.99619 22.2607 9.30771 22.0843 8.43407C22.0323 8.17589 21.8059 7.99141 21.5427 7.99141H4.98633C4.72357 7.99141 4.49675 8.17635 4.44479 8.43407C4.26833 9.30771 3.58008 9.99619 2.70621 10.1724Z" fill="#32D736"/>
<path d="M22.5996 9.46587V13.035C22.5996 13.616 22.2533 14.1401 21.7197 14.3701C21.1469 14.6171 20.6998 15.0973 20.4957 15.6878C20.295 16.2675 19.7413 16.6505 19.1279 16.6505H3.9679C4.25079 16.9872 4.42543 17.3952 4.47441 17.8269C4.50623 18.1066 4.7422 18.3165 5.0235 18.3165H21.5053C21.7861 18.3165 22.0228 18.1059 22.0544 17.8267C22.1629 16.87 22.8831 16.089 23.8229 15.8995C24.0811 15.8473 24.2656 15.6212 24.2656 15.3577V10.7142C24.2656 10.4514 24.0807 10.2246 23.8232 10.1724C23.3402 10.0749 22.914 9.82086 22.5996 9.46587Z" fill="#2AB52D"/>
<path d="M16.6913 13.1538C16.6913 15.0465 15.1571 16.5804 13.2647 16.5804C11.372 16.5804 9.83807 15.0465 9.83807 13.1538C9.83807 11.2614 11.372 9.72725 13.2647 9.72725C15.1571 9.72725 16.6913 11.2614 16.6913 13.1538Z" fill="#E1E3FA"/>
<path d="M30 19.3561C30 22.2814 27.6286 24.6529 24.7032 24.6529C21.7779 24.6529 19.4064 22.2814 19.4064 19.3561C19.4064 16.4307 21.7779 14.0593 24.7032 14.0593C27.6286 14.0593 30 16.4307 30 19.3561Z" fill="#17ACE8"/>
<path d="M28.3996 15.5628C28.7793 16.3165 28.9938 17.1675 28.9938 18.0688C28.9938 21.1494 26.4965 23.6467 23.4159 23.6467C22.5146 23.6467 21.6634 23.4322 20.9099 23.0525C21.8721 24.0395 23.2159 24.6529 24.7032 24.6529C27.6285 24.6529 30 22.2814 30 19.3561C30 17.8688 29.3868 16.525 28.3996 15.5628Z" fill="#1391C4"/>
<path d="M27.4427 18.9034H25.1559V16.6166C25.1559 16.3667 24.9532 16.1639 24.7032 16.1639C24.4533 16.1639 24.2505 16.3667 24.2505 16.6166V18.9034H21.964C21.7138 18.9034 21.5112 19.1059 21.5112 19.3561C21.5112 19.606 21.7138 19.8088 21.964 19.8088H24.2505V22.0953C24.2505 22.3455 24.4533 22.5481 24.7032 22.5481C24.9534 22.5481 25.1559 22.3455 25.1559 22.0953V19.8088H27.4427C27.6926 19.8088 27.8952 19.606 27.8952 19.3561C27.8952 19.1061 27.6926 18.9034 27.4427 18.9034Z" fill="#E1E3FA"/>
</g>
<defs>
<clipPath id="clip0">
<rect width="30" height="30" fill="white"/>
</clipPath>
</defs>
</svg>
