<svg width="35" height="35" viewBox="0 0 35 35" fill="none" xmlns="http://www.w3.org/2000/svg">
<path d="M22.4219 27.3438H12.5781V33.9062H22.4219V27.3438Z" fill="#55CB95"/>
<path d="M29.6636 19.157C27.3323 18.5735 25.7031 16.4877 25.7031 14.0842V8.75C25.7031 4.2268 22.0232 0.546875 17.5 0.546875C12.9768 0.546875 9.29689 4.2268 9.29689 8.75V14.0842C9.29689 16.4883 7.66775 18.5735 5.33642 19.157L4.58337 19.3452L5.38126 20.5417C6.06322 21.5649 6.99783 22.3666 8.10251 22.8829C8.1747 22.8545 8.24306 22.8195 8.31853 22.7959L14.7656 20.7812V18.4084C13.434 17.6378 12.4573 16.322 12.1412 14.7656H12.0313C10.8232 14.7656 9.84376 13.7862 9.84376 12.5781C9.84376 11.3701 10.8232 10.3906 12.0313 10.3906C12.0313 8.8993 12.6295 7.54906 13.5975 6.5625H13.5428C13.2831 6.27211 13.125 5.88875 13.125 5.46875C13.125 4.56258 13.8595 3.82812 14.7656 3.82812C15.2414 3.82812 15.6658 4.03375 15.9655 4.35695C16.1963 3.73023 16.7935 3.28125 17.5 3.28125C18.2066 3.28125 18.8038 3.73023 19.0345 4.35695C19.3342 4.03375 19.7586 3.82812 20.2344 3.82812C21.1406 3.82812 21.875 4.56258 21.875 5.46875C21.875 5.88875 21.717 6.27211 21.4572 6.5625H21.4025C22.3705 7.54906 22.9688 8.8993 22.9688 10.3906C24.1768 10.3906 25.1563 11.3701 25.1563 12.5781C25.1563 13.7862 24.1768 14.7656 22.9688 14.7656H22.8588C22.5427 16.322 21.566 17.6378 20.2344 18.4084V20.7812L26.682 22.7959C26.757 22.8195 26.8253 22.8545 26.8981 22.8829C28.0028 22.3666 28.9374 21.5649 29.6193 20.5417L30.4172 19.3452L29.6636 19.157Z" fill="#55CB95"/>
<path d="M29.5312 25.9279C29.5312 24.2441 28.4517 22.7757 26.845 22.2737L20.7812 20.3793V18.7075C21.9898 17.9173 22.8944 16.7043 23.2909 15.2802C24.6455 15.1184 25.7031 13.9754 25.7031 12.5781C25.7031 11.2492 24.7494 10.1413 23.4905 9.89625C23.3871 8.63188 22.8949 7.47633 22.1287 6.55375C22.3169 6.22508 22.4219 5.8532 22.4219 5.46875C22.4219 4.26234 21.4408 3.28125 20.2344 3.28125C19.8702 3.28125 19.5125 3.37477 19.1953 3.54812C18.7873 3.04445 18.1666 2.73438 17.5 2.73438C16.8334 2.73438 16.2127 3.04445 15.8047 3.54812C15.4875 3.37477 15.1298 3.28125 14.7656 3.28125C13.5592 3.28125 12.5781 4.26234 12.5781 5.46875C12.5781 5.8532 12.6831 6.22508 12.8712 6.55375C12.1051 7.47688 11.6129 8.63242 11.5095 9.89625C10.2506 10.1413 9.29688 11.2492 9.29688 12.5781C9.29688 13.9754 10.3545 15.1184 11.7091 15.2797C12.1051 16.7043 13.0102 17.9167 14.2188 18.707V20.3787L8.155 22.2737C6.54828 22.7757 5.46875 24.2446 5.46875 25.9279V30.0781H6.5625V34.4531H28.4375V30.0781H29.5312V25.9279ZM24.3496 27.3104C24.8702 27.831 25.1562 28.5223 25.1562 29.2578C25.1562 29.9934 24.8702 30.6846 24.3496 31.2052L23.5156 32.0392V33.3594H11.4844V32.0392L10.6504 31.2052C10.1298 30.6846 9.84375 29.9934 9.84375 29.2578C9.84375 28.5223 10.1298 27.831 10.6504 27.3104C11.188 26.7728 11.4844 26.0575 11.4844 25.2968V22.3792L12.5781 22.0374V26.25H22.4219V22.038L23.5156 22.3798V25.2973C23.5156 26.0575 23.812 26.7728 24.3496 27.3104ZM20.2344 8.20312V9.29688H19.1406V8.20312H18.0469V9.29688H16.9531V8.20312H15.8594V9.29688H14.7656V8.20312H13.6719V9.29688H12.705C13.2043 7.10828 15.1627 5.46875 17.5 5.46875C19.8373 5.46875 21.7957 7.10828 22.295 9.29688H21.3281V8.20312H20.2344ZM24.6094 12.5781C24.6094 13.2984 24.1396 13.9054 23.4927 14.1252C23.5041 13.9748 23.5156 13.825 23.5156 13.6719V11.0381C24.1505 11.2645 24.6094 11.8661 24.6094 12.5781ZM21.3281 5.46875C21.3281 5.5568 21.3139 5.6432 21.2931 5.72742C20.7517 5.28609 20.131 4.94156 19.4578 4.70914C19.6673 4.49477 19.9407 4.375 20.2344 4.375C20.8376 4.375 21.3281 4.86555 21.3281 5.46875ZM17.5 3.82812C17.92 3.82812 18.2946 4.08242 18.474 4.46141C18.1562 4.40891 17.8325 4.375 17.5 4.375C17.1675 4.375 16.8438 4.40891 16.526 4.46141C16.7054 4.08242 17.08 3.82812 17.5 3.82812ZM14.7656 4.375C15.0593 4.375 15.3327 4.49477 15.5416 4.70859C14.8684 4.94102 14.2477 5.28609 13.7063 5.72688C13.6861 5.64266 13.6719 5.5568 13.6719 5.46875C13.6719 4.86555 14.1624 4.375 14.7656 4.375ZM10.3906 12.5781C10.3906 11.8661 10.8495 11.2645 11.4844 11.0381V13.6719C11.4844 13.825 11.4959 13.9748 11.5073 14.1252C10.8604 13.9054 10.3906 13.2984 10.3906 12.5781ZM12.5781 13.6719V10.3906H22.4219V13.6719C22.4219 16.3855 20.2141 18.5938 17.5 18.5938C14.7859 18.5938 12.5781 16.3855 12.5781 13.6719ZM17.5 19.6875C18.2722 19.6875 19.0083 19.536 19.6875 19.2697V20.5548L17.5 22.7423L15.3125 20.5548V19.2697C15.9917 19.536 16.7278 19.6875 17.5 19.6875ZM14.613 21.402L17.5 24.2889L20.387 21.402L21.3281 21.6962V25.1562H13.6719V21.6962L14.613 21.402ZM6.5625 25.9279C6.5625 24.7253 7.33359 23.6764 8.48094 23.3182L10.3906 22.721V25.2968C10.3906 25.7649 10.208 26.2057 9.87711 26.5371C9.21539 27.1988 8.8282 28.0596 8.76367 28.9844H6.5625V25.9279ZM7.65625 30.0781H8.83969C8.99391 30.7923 9.34773 31.4491 9.87656 31.9785L10.3906 32.492V33.3594H7.65625V30.0781ZM27.3438 33.3594H24.6094V32.492L25.1229 31.9785C25.6523 31.4497 26.0055 30.7929 26.1598 30.0781H27.3438V33.3594ZM28.4375 28.9844H26.2369C26.1723 28.0596 25.7852 27.1988 25.1234 26.5371C24.792 26.2057 24.6094 25.7655 24.6094 25.2968V22.721L26.5191 23.3177C27.6664 23.6764 28.4375 24.7253 28.4375 25.9279V28.9844Z" fill="#55CB95"/>
<path d="M20.2344 12.5781C20.5364 12.5781 20.7812 12.3333 20.7812 12.0312C20.7812 11.7292 20.5364 11.4844 20.2344 11.4844C19.9323 11.4844 19.6875 11.7292 19.6875 12.0312C19.6875 12.3333 19.9323 12.5781 20.2344 12.5781Z" fill="#55CB95"/>
<path d="M14.7656 12.5781C15.0677 12.5781 15.3125 12.3333 15.3125 12.0312C15.3125 11.7292 15.0677 11.4844 14.7656 11.4844C14.4636 11.4844 14.2188 11.7292 14.2188 12.0312C14.2188 12.3333 14.4636 12.5781 14.7656 12.5781Z" fill="#55CB95"/>
<path d="M19.6875 14.7656H18.5938C18.5938 15.3688 18.1032 15.8594 17.5 15.8594C16.8968 15.8594 16.4062 15.3688 16.4062 14.7656H15.3125C15.3125 15.972 16.2936 16.9531 17.5 16.9531C18.7064 16.9531 19.6875 15.972 19.6875 14.7656Z" fill="#55CB95"/>
<path d="M19.1406 29.5312H12.5781V30.625H19.1406V29.5312Z" fill="#55CB95"/>
<path d="M22.4219 29.5312H20.2344V30.625H22.4219V29.5312Z" fill="#55CB95"/>
</svg>
