<svg width="50" height="50" viewBox="0 0 50 50" fill="none" xmlns="http://www.w3.org/2000/svg">
<g clip-path="url(#clip0)">
<path d="M22.2334 35.1115H1.50908C0.675586 35.1115 0 34.436 0 33.6026V23.565C0 22.9196 0.410449 22.3456 1.02119 22.1369L6.03623 20.4235L8.89912 13.2663C9.35742 12.1205 10.4673 11.3692 11.7014 11.3692H22.2334V35.1115Z" fill="#FAF7F7"/>
<path d="M0 31.4392V33.6016C0 34.435 0.675586 35.1106 1.50908 35.1106H22.2334V31.4392H0Z" fill="#EFE2DD"/>
<path d="M9.30812 20.7778L11.6034 14.6476C11.6623 14.4904 11.8125 14.3862 11.9803 14.3862H18.8128C19.0351 14.3862 19.2153 14.5664 19.2153 14.7887V20.9189C19.2153 21.1412 19.0351 21.3214 18.8128 21.3214H9.68498C9.40412 21.3214 9.20968 21.0409 9.30812 20.7778Z" fill="#B3DAFE"/>
<path d="M50 32.0935V14.3872C50 12.7203 48.6487 11.3692 46.9819 11.3692H22.2334V35.1116H46.9819C48.6487 35.1115 50 33.7603 50 32.0935Z" fill="#CBC4CC"/>
<path d="M46.982 11.3682H43.9638C45.6307 11.3682 46.982 12.7194 46.982 14.3862V32.0925C46.982 33.7593 45.6307 35.1105 43.9638 35.1105H46.982C48.6488 35.1105 50 33.7593 50 32.0925V14.3863C50 12.7194 48.6488 11.3682 46.982 11.3682Z" fill="#BAAFB9"/>
<path d="M50 32.0926V31.4392H22.2334V35.1106H46.9819C48.6487 35.1106 50 33.7594 50 32.0926Z" fill="#EFE2DD"/>
<path d="M46.982 32.0926C46.982 33.7594 45.6307 35.1106 43.9638 35.1106H46.982C48.6488 35.1106 50 33.7594 50 32.0926V31.4392H46.982V32.0926Z" fill="#E1D3CE"/>
<path d="M14.6683 37.1555C16.6324 35.1914 16.6324 32.0069 14.6683 30.0428C12.7042 28.0787 9.51971 28.0787 7.5556 30.0428C5.59149 32.0069 5.59149 35.1914 7.5556 37.1555C9.51971 39.1196 12.7042 39.1196 14.6683 37.1555Z" fill="#918291"/>
<path d="M42.6358 35.8797C43.8943 33.4044 42.9079 30.3776 40.4326 29.1191C37.9573 27.8606 34.9305 28.847 33.672 31.3223C32.4136 33.7976 33.4 36.8244 35.8753 38.0829C38.3505 39.3413 41.3773 38.3549 42.6358 35.8797Z" fill="#918291"/>
<path d="M3.01807 27.2636H0V24.3461H3.01807C3.57363 24.3461 4.02412 24.7965 4.02412 25.3521V26.2576C4.02412 26.8132 3.57373 27.2636 3.01807 27.2636Z" fill="#F58A97"/>
<path d="M11.7342 34.0506C11.9734 33.7093 11.8907 33.2387 11.5494 32.9996C11.2081 32.7604 10.7376 32.8431 10.4984 33.1844C10.2592 33.5257 10.342 33.9962 10.6832 34.2354C11.0245 34.4746 11.4951 34.3918 11.7342 34.0506Z" fill="#A79BA7"/>
<path d="M38.7048 34.1355C38.9994 33.8409 38.9994 33.3632 38.7048 33.0686C38.4102 32.774 37.9326 32.774 37.638 33.0686C37.3434 33.3632 37.3434 33.8409 37.638 34.1355C37.9326 34.4301 38.4102 34.4301 38.7048 34.1355Z" fill="#A79BA7"/>
<path d="M43.7048 22.9307L36.8712 19.768V19.0749C37.8802 18.7253 38.5242 17.7064 38.4062 16.6385C38.2893 15.5788 37.4353 14.7249 36.3759 14.6079C35.7213 14.5363 35.0671 14.7445 34.5799 15.181C34.0923 15.6177 33.8127 16.2433 33.8127 16.8975C33.8127 17.3143 34.1505 17.652 34.5672 17.652C34.9839 17.652 35.3217 17.3142 35.3217 16.8975C35.3217 16.6685 35.4158 16.458 35.5866 16.3051C35.7571 16.1523 35.9786 16.0818 36.2102 16.1079C36.5676 16.1473 36.8667 16.4466 36.9061 16.804C36.9483 17.1851 36.726 17.5342 36.3657 17.6528C35.7654 17.8504 35.362 18.4168 35.362 19.0622V19.768L28.5285 22.9307C28.0186 23.1666 27.7468 23.7147 27.8675 24.2636C27.9883 24.8124 28.4652 25.1956 29.0271 25.1956H43.206C43.768 25.1956 44.2449 24.8124 44.3657 24.2636C44.4864 23.7147 44.2147 23.1666 43.7048 22.9307ZM30.4883 23.6865L36.1167 21.0816L41.7451 23.6865H30.4883Z" fill="white"/>
<path d="M19.2154 25.094H16.6018C16.185 25.094 15.8473 24.7563 15.8473 24.3396C15.8473 23.9228 16.1851 23.5851 16.6018 23.5851H19.2154C19.6322 23.5851 19.9698 23.9229 19.9698 24.3396C19.9698 24.7563 19.6321 25.094 19.2154 25.094Z" fill="#EFE2DD"/>
</g>
<defs>
<clipPath id="clip0">
<rect width="50" height="50" fill="white"/>
</clipPath>
</defs>
</svg>
