<svg width="30" height="30" viewBox="0 0 30 30" fill="none" xmlns="http://www.w3.org/2000/svg">
<path d="M26.8659 14.7221C26.8659 22.1409 20.8518 28.155 13.4331 28.155C6.0141 28.155 0 22.1409 0 14.7221C0 7.30316 6.0141 1.28906 13.4331 1.28906C20.8518 1.28906 26.8659 7.30316 26.8659 14.7221Z" fill="#FEB836"/>
<path d="M13.4331 1.28906C13.0209 1.28906 12.6116 1.30783 12.2088 1.34422C19.0544 1.96198 24.4206 7.71561 24.4206 14.7221C24.4206 21.7287 19.0538 27.4821 12.2081 28.1001C12.611 28.1362 13.0209 28.155 13.4331 28.155C20.8519 28.155 26.866 22.1409 26.866 14.7219C26.866 7.30316 20.8519 1.28906 13.4331 1.28906Z" fill="#D1972C"/>
<path d="M22.8895 14.7221C22.8895 19.9448 18.6557 24.1786 13.433 24.1786C8.21042 24.1786 3.97656 19.9448 3.97656 14.7221C3.97656 9.49951 8.21042 5.26566 13.433 5.26566C18.6557 5.26566 22.8895 9.49951 22.8895 14.7221Z" fill="#FFDC45"/>
<path d="M13.4331 5.26566C13.0186 5.26566 12.6091 5.29243 12.2088 5.34416C16.8539 5.94383 20.4442 9.91379 20.4442 14.7221C20.4442 19.5305 16.8434 23.4991 12.1982 24.0987C12.5986 24.1505 13.0186 24.1786 13.4331 24.1786C18.6557 24.1786 22.8895 19.9448 22.8895 14.7221C22.8895 9.49951 18.6557 5.26566 13.4331 5.26566Z" fill="#D6B93A"/>
<path d="M30 23.448C30 26.3734 27.6286 28.7448 24.7032 28.7448C21.7779 28.7448 19.4064 26.3734 19.4064 23.448C19.4064 20.5227 21.7779 18.1512 24.7032 18.1512C27.6286 18.1512 30 20.5227 30 23.448Z" fill="#17ACE8"/>
<path d="M27.8018 19.1517C28.4315 20.023 28.8027 21.0938 28.8027 22.251C28.8027 25.1763 26.4313 27.5478 23.5061 27.5478C22.3489 27.5478 21.278 27.1763 20.4069 26.5466C21.3689 27.878 22.9351 28.7448 24.7032 28.7448C27.6285 28.7448 30 26.3734 30 23.448C30 21.6799 29.1332 20.1139 27.8018 19.1517Z" fill="#1391C4"/>
<path d="M27.4425 22.9955H25.1559V20.7088C25.1559 20.4588 24.9532 20.256 24.7032 20.256C24.453 20.256 24.2505 20.4588 24.2505 20.7088V22.9955H21.9637C21.7138 22.9955 21.5112 23.1981 21.5112 23.448C21.5112 23.6982 21.7138 23.9008 21.9637 23.9008H24.2505V26.1875C24.2505 26.4375 24.453 26.6402 24.7032 26.6402C24.9532 26.6402 25.1559 26.4375 25.1559 26.1875V23.9008H27.4425C27.6926 23.9008 27.8952 23.6982 27.8952 23.448C27.8954 23.1981 27.6926 22.9955 27.4425 22.9955Z" fill="#E1E3FA"/>
</svg>
