<svg width="35" height="35" viewBox="0 0 35 35" fill="none" xmlns="http://www.w3.org/2000/svg">
<path d="M17.494 4.2361L16.3231 3.5804L15.1512 4.2361L13.9798 3.5804L12.8089 4.2361L11.638 3.5804L10.4672 4.2361L9.02945 3.43001L9.56429 2.47626L10.4672 2.98212L11.638 2.32642L12.8089 2.98212L13.9798 2.32642L15.1512 2.98212L16.3231 2.32642L17.494 2.98212L18.6643 2.32642L19.8357 2.98267L21.0077 2.32696L22.1807 2.98267L23.3532 2.32696L24.5284 2.98267L25.4368 2.47571L25.9695 3.43056L24.5284 4.23556L23.3532 3.57985L22.1807 4.23556L21.0077 3.57985L19.8357 4.23556L18.6643 3.5804L17.494 4.2361Z" fill="#55CB95"/>
<path d="M9.06007 7.03609L7.38882 6.09874L7.92367 5.14499L9.06007 5.7821L10.4655 4.99515L11.8705 5.7821L13.2759 4.99515L14.6814 5.7821L16.0874 4.99515L17.4934 5.7821L18.8973 4.99515L20.3027 5.7821L21.7093 4.99569L23.117 5.78265L24.5246 4.99569L25.9339 5.78265L27.0774 5.14444L27.6101 6.09929L25.9339 7.03554L24.5246 6.24859L23.117 7.03554L21.7093 6.24859L20.3027 7.03609L18.8973 6.24913L17.4934 7.03609L16.0874 6.24913L14.6814 7.03609L13.2759 6.24913L11.8705 7.03609L10.4655 6.24913L9.06007 7.03609Z" fill="#55CB95"/>
<path d="M31.1719 21.875H33.8751L30.3592 16.9531H29.5313V14.2188H26.7969V8.75H29.353L24.9364 0.546875H10.0636L5.64705 8.75H8.20314V14.2188H5.46876V16.9531H4.64025L1.12439 21.875H3.82814V33.3594H2.73439V34.4531H32.2656V33.3594H31.1719V21.875ZM28.4375 16.9531H27.3438V15.3125H28.4375V16.9531ZM25.1563 15.3125H26.25V16.9531H25.1563V15.3125ZM10.7177 1.64062H24.2829L27.5226 7.65625H7.47798L10.7177 1.64062ZM9.84376 16.9531H8.75001V15.3125H9.84376V16.9531ZM6.56251 15.3125H7.65626V16.9531H6.56251V15.3125ZM4.92189 21.875H7.10939V20.7812H3.25009L5.20298 18.0469H10.3906V17.5H10.9375V15.3125H14.2188V14.2188H9.29689V8.75H25.7031V14.2188H20.7813V15.3125H24.0625V17.5H24.6094V18.0469H29.7965L31.7494 20.7812H27.8906V21.875H30.0781V33.3594H28.9844V31.7188H27.8906V33.3594H23.5156V31.7188H22.4219V33.3594H20.7813V24.6094H14.2188V33.3594H12.5781V31.7188H11.4844V33.3594H7.10939V31.7188H6.01564V33.3594H4.92189V21.875ZM19.6875 33.3594H15.3125V25.7031H19.6875V33.3594Z" fill="#55CB95"/>
<path d="M17.5 23.5156C19.0077 23.5156 20.2344 22.289 20.2344 20.7812C20.2344 19.2735 19.0077 18.0469 17.5 18.0469C15.9923 18.0469 14.7656 19.2735 14.7656 20.7812C14.7656 22.289 15.9923 23.5156 17.5 23.5156ZM15.96 21.3281H16.9531V22.3213C16.4899 22.1561 16.1252 21.7913 15.96 21.3281ZM18.0469 22.3213V21.3281H19.04C18.8748 21.7913 18.5101 22.1561 18.0469 22.3213ZM19.04 20.2344H18.0469V19.2412C18.5101 19.4064 18.8748 19.7712 19.04 20.2344ZM16.9531 19.2412V20.2344H15.96C16.1252 19.7712 16.4899 19.4064 16.9531 19.2412Z" fill="#55CB95"/>
<path d="M9.84375 21.3281H8.75V28.4375H9.84375V21.3281Z" fill="#55CB95"/>
<path d="M26.25 21.3281H25.1562V28.4375H26.25V21.3281Z" fill="#55CB95"/>
<path d="M17.5 28.9844H16.4062V30.0781H17.5V28.9844Z" fill="#55CB95"/>
<path d="M24.6094 9.84375H21.3281V13.125H24.6094V9.84375ZM23.5156 12.0312H22.4219V10.9375H23.5156V12.0312Z" fill="#55CB95"/>
<path d="M10.3906 13.125H13.6719V9.84375H10.3906V13.125ZM11.4844 10.9375H12.5781V12.0312H11.4844V10.9375Z" fill="#55CB95"/>
<path d="M34.4531 33.3594H33.3594V34.4531H34.4531V33.3594Z" fill="#55CB95"/>
<path d="M1.64062 33.3594H0.546875V34.4531H1.64062V33.3594Z" fill="#55CB95"/>
<path d="M11.4844 32.2656H7.10938C6.20484 32.2656 5.46875 31.5295 5.46875 30.625C5.46875 29.8523 6.00578 29.202 6.72656 29.0292C7.02789 28.3511 7.70984 27.8906 8.47656 27.8906C8.76258 27.8906 9.04094 27.9546 9.29688 28.0788C9.55281 27.9546 9.83117 27.8906 10.1172 27.8906C10.8839 27.8906 11.5659 28.3511 11.8672 29.0292C12.588 29.202 13.125 29.8523 13.125 30.625C13.125 31.5295 12.3889 32.2656 11.4844 32.2656Z" fill="#55CB95"/>
<path d="M27.8906 32.2656H23.5156C22.6111 32.2656 21.875 31.5295 21.875 30.625C21.875 29.8523 22.412 29.202 23.1328 29.0292C23.4341 28.3511 24.1161 27.8906 24.8828 27.8906C25.1688 27.8906 25.4472 27.9546 25.7031 28.0788C25.9591 27.9546 26.2374 27.8906 26.5234 27.8906C27.2902 27.8906 27.9721 28.3511 28.2734 29.0292C28.9942 29.202 29.5312 29.8523 29.5312 30.625C29.5312 31.5295 28.7952 32.2656 27.8906 32.2656Z" fill="#55CB95"/>
<path d="M26.7887 22.4219H26.6175C26.2631 22.4219 25.9115 22.3043 25.6277 22.0916L17.5 15.9961L9.3718 22.0916C9.08852 22.3043 8.73742 22.4219 8.3825 22.4219H8.21133C7.30242 22.4219 6.5625 21.682 6.5625 20.7731C6.5625 20.2677 6.80094 19.7816 7.19906 19.4715L16.1859 12.4824C16.9334 11.9006 18.0666 11.9006 18.8147 12.4824L27.802 19.472C28.1991 19.7816 28.4375 20.2683 28.4375 20.7731C28.4375 21.682 27.6976 22.4219 26.7887 22.4219Z" fill="#55CB95"/>
</svg>
