<svg width="50" height="50" viewBox="0 0 50 50" fill="none" xmlns="http://www.w3.org/2000/svg">
<path d="M50 6.25C50 9.70215 47.2178 12.5 43.7861 12.5H3.10645C3.08594 12.5 3.05859 12.5 3.02539 12.499C2.19922 12.4775 1.4541 12.1328 0.910156 11.585C0.733398 11.4072 0.577148 11.208 0.447266 10.9912C0.163086 10.5195 0 9.9668 0 9.375C0 7.64941 1.39062 6.25 3.10645 6.25C3.0791 6.25 3.05176 6.24902 3.02344 6.24902C2.83887 6.24414 2.65918 6.22256 2.48438 6.1875C2.4834 6.1875 2.48242 6.1875 2.48047 6.18652C1.87305 6.06152 1.33105 5.75879 0.910156 5.33496C0.733398 5.15723 0.577148 4.95801 0.447266 4.74121C0.163086 4.26953 0 3.7168 0 3.125C0 1.39941 1.39062 0 3.10645 0H43.7861C44.1807 0 44.5664 0.0371094 44.9395 0.108398C46.1934 0.34375 47.3135 0.958984 48.1797 1.83008C49.3047 2.96094 50 4.52344 50 6.25Z" fill="#ACA6D6"/>
<path d="M50 6.25C50 9.70215 47.2178 12.5 43.7861 12.5H3.10645C3.08594 12.5 3.05859 12.5 3.02539 12.499C2.19922 12.4775 1.4541 12.1328 0.910156 11.585C0.733398 11.4072 0.577148 11.208 0.447266 10.9912H40.7686C42.8096 10.9912 44.6221 10 45.7549 8.4707C46.543 7.40723 45.7031 6.02832 44.3789 6.03516C3.10645 6.25 44.3789 6.03516 3.10645 6.25C3.0791 6.25 3.05176 6.24902 3.02344 6.24902C2.83887 6.24414 2.65918 6.22256 2.48438 6.1875C2.4834 6.1875 2.48242 6.1875 2.48047 6.18652C1.87305 6.06152 1.33105 5.75879 0.910156 5.33496C0.733398 5.15723 0.577148 4.95801 0.447266 4.74121H40.7686C42.374 4.74121 43.8369 4.12793 44.9395 3.12109C45.8174 2.32031 45.8301 0.925781 44.9541 0.12207C44.9512 0.119141 44.9444 0.113281 44.9395 0.108398C46.1934 0.34375 47.3135 0.958984 48.1797 1.83008C49.3047 2.96094 50 4.52344 50 6.25Z" fill="#978ECB"/>
<path d="M46.8932 18.75C48.609 18.75 50 20.1491 50 21.875C50 23.6009 48.609 25 46.8932 25H6.21377C2.78193 25 0 22.2018 0 18.75C0 15.2982 2.78193 12.5 6.21377 12.5H46.8932C48.609 12.5 50 13.8991 50 15.625C50 17.3509 48.609 18.75 46.8932 18.75Z" fill="#7ACAA6"/>
<path d="M46.8931 18.75C46.9482 18.75 46.9984 18.7486 47.0442 18.7462C47.0625 18.7453 47.0806 18.7436 47.0988 18.7425C47.1013 18.7423 47.104 18.7422 47.1064 18.7419C48.731 18.6312 50 17.2538 50 15.625C50 13.9114 48.6203 12.4991 46.8931 12.5L46.9818 14.1159C46.9818 15.8418 45.5908 17.2409 43.875 17.2409H3.19561C3.02148 17.2409 1.67285 17.2334 0.188477 17.2188C0.0661133 17.7075 0.000390625 18.2189 0 18.7457C0.0591797 18.7475 0.118066 18.75 0.177539 18.75H5.99707H45.3527C46.24 18.75 46.9771 19.4599 46.9818 20.3472V20.3659C46.9818 22.0918 45.5908 23.4909 43.875 23.4909H3.19561C2.80117 23.4909 2.41582 23.4523 2.0418 23.3816C3.14463 24.3873 4.60801 25 6.21377 25H46.8932C48.609 25 50 23.6009 50 21.875C50 20.1491 48.609 18.75 46.8931 18.75Z" fill="#57BE92"/>
<path d="M50 31.25C50 34.7021 47.2178 37.5 43.7861 37.5H3.10645C3.08594 37.5 3.05859 37.5 3.02539 37.499C2.19922 37.4775 1.4541 37.1328 0.910156 36.585C0.733398 36.4072 0.577148 36.208 0.447266 35.9912C0.163086 35.5195 0 34.9668 0 34.375C0 32.6494 1.39062 31.25 3.10645 31.25C3.0791 31.25 3.05176 31.249 3.02344 31.249C2.83887 31.2441 2.65918 31.2226 2.48438 31.1875C2.4834 31.1875 2.48242 31.1875 2.48047 31.1865C1.87305 31.0615 1.33105 30.7588 0.910156 30.335C0.733398 30.1572 0.577148 29.958 0.447266 29.7412C0.163086 29.2695 0 28.7168 0 28.125C0 26.3994 1.39062 25 3.10645 25H43.7861C44.1807 25 44.5664 25.0371 44.9395 25.1084C46.1934 25.3437 47.3135 25.959 48.1797 26.8301C49.3047 27.9609 50 29.5234 50 31.25Z" fill="#ACA6D6"/>
<path d="M50 31.25C50 34.7022 47.2178 37.5 43.7861 37.5H3.10645C3.08594 37.5 3.05859 37.5 3.02539 37.499C2.19922 37.4775 1.4541 37.1328 0.910156 36.585C0.733398 36.4072 0.577148 36.208 0.447266 35.9912H40.7686C42.8096 35.9912 44.6221 35 45.7549 33.4707C46.543 32.4072 45.7031 31.0283 44.3789 31.0352C3.10645 31.25 44.3789 31.0352 3.10645 31.25C3.0791 31.25 3.05176 31.249 3.02344 31.249C2.83887 31.2441 2.65918 31.2226 2.48438 31.1875C2.4834 31.1875 2.48242 31.1875 2.48047 31.1865C1.87305 31.0615 1.33105 30.7588 0.910156 30.335C0.733398 30.1572 0.577148 29.958 0.447266 29.7412H40.7686C42.374 29.7412 43.8369 29.1279 44.9395 28.1211C45.8174 27.3203 45.8301 25.9258 44.9541 25.1221C44.9512 25.1191 44.9444 25.1133 44.9395 25.1084C46.1934 25.3438 47.3135 25.959 48.1797 26.8301C49.3047 27.9609 50 29.5234 50 31.25Z" fill="#978ECB"/>
<path d="M46.8932 43.75C48.609 43.75 50 45.1491 50 46.875C50 48.6009 48.609 50 46.8932 50H6.21377C2.78193 50 0 47.2018 0 43.75C0 40.2982 2.78193 37.5 6.21377 37.5H46.8932C48.609 37.5 50 38.8991 50 40.625C50 42.3509 48.609 43.75 46.8932 43.75Z" fill="#7ACAA6"/>
<path d="M46.8931 43.75C46.9482 43.75 46.9984 43.7486 47.0442 43.7462C47.0625 43.7453 47.0806 43.7437 47.0988 43.7425C47.1013 43.7423 47.104 43.7422 47.1064 43.7419C48.731 43.6312 50 42.2538 50 40.625C50 38.9114 48.6203 37.4991 46.8931 37.5L46.9818 39.1159C46.9818 40.8418 45.5908 42.2409 43.875 42.2409H3.19561C3.02148 42.2409 1.67285 42.2334 0.188477 42.2188C0.0661133 42.7075 0.000390625 43.2189 0 43.7457C0.0591797 43.7475 0.118066 43.75 0.177539 43.75H5.99707H45.3527C46.24 43.75 46.9771 44.4599 46.9818 45.3472V45.3659C46.9818 47.0918 45.5908 48.4909 43.875 48.4909H3.19561C2.80117 48.4909 2.41582 48.4522 2.0418 48.3816C3.14463 49.3873 4.60801 50 6.21377 50H46.8932C48.609 50 50 48.6009 50 46.875C50 45.1491 48.609 43.75 46.8931 43.75Z" fill="#57BE92"/>
</svg>
