<svg width="50" height="50" viewBox="0 0 50 50" fill="none" xmlns="http://www.w3.org/2000/svg">
<g clip-path="url(#clip0)">
<path d="M14.6086 19.3482H35.3915V23.7505H14.6086V19.3482Z" fill="#918291"/>
<path d="M46.91 40.5752H3.09141C1.16944 40.5752 -0.286129 38.8375 0.0489296 36.9432L2.04463 25.6592C2.30586 24.182 3.58848 23.1055 5.08711 23.1055H44.9142C46.4129 23.1055 47.6954 24.1819 47.9568 25.6592L49.9526 36.9432C50.2876 38.8376 48.832 40.5752 46.91 40.5752Z" fill="#ACA6D6"/>
<path d="M49.9518 36.9442L47.956 25.6601C47.6948 24.1829 46.4122 23.1065 44.9136 23.1065H44.5535C44.7419 23.4217 44.8768 23.7745 44.944 24.1541C45.0911 24.9707 45.2381 25.7873 45.3851 26.6039C46.5544 33.0979 41.5635 39.0679 34.9651 39.0683C23.4561 39.0689 11.9472 39.0695 0.438171 39.0701C0.973425 39.9639 1.94989 40.5762 3.09071 40.5762H46.9094C48.8312 40.5761 50.2869 38.8385 49.9518 36.9442Z" fill="#978ECB"/>
<path d="M3.25028 36.9912L5.09706 26.5496C5.13094 26.3578 5.29774 26.218 5.49256 26.218L44.5075 26.2181C44.7023 26.2181 44.869 26.3579 44.903 26.5497L46.7498 36.9912C46.7932 37.2372 46.6041 37.4628 46.3544 37.4628H3.64569C3.39598 37.4628 3.20672 37.2372 3.25028 36.9912Z" fill="#FAF7F7"/>
<path d="M45.4757 29.7881C45.0809 32.9842 43.2363 35.7949 40.5747 37.4628H46.3543C46.6041 37.4628 46.7933 37.2372 46.7497 36.9912L45.4757 29.7881Z" fill="#F3EAE6"/>
<path d="M21.2343 35.2864C21.0479 35.2864 20.8596 35.2639 20.6727 35.2178C19.6737 34.9717 18.976 34.0656 18.976 33.0144V30.6272C18.976 29.5759 19.6737 28.6698 20.6727 28.4239C21.364 28.2533 22.0762 28.4035 22.6269 28.8352C23.1779 29.2669 23.4939 29.9158 23.4939 30.6155V33.0264C23.4939 33.7261 23.1779 34.375 22.6269 34.8067C22.2252 35.1216 21.7372 35.2864 21.2343 35.2864ZM21.235 29.8609C21.1725 29.8609 21.1051 29.8685 21.0329 29.8862C20.7136 29.9648 20.482 30.2765 20.482 30.6272V33.0144C20.482 33.3651 20.7136 33.6769 21.0329 33.7555C21.3596 33.8357 21.59 33.706 21.6981 33.6212C21.8824 33.4769 21.988 33.26 21.988 33.0263V30.6154C21.988 30.3817 21.8823 30.1648 21.6981 30.0205C21.6138 29.9545 21.4555 29.8609 21.235 29.8609Z" fill="#918291"/>
<path d="M28.7643 35.2868C28.578 35.2868 28.3897 35.2643 28.2028 35.2182C27.2038 34.9723 26.506 34.0661 26.506 33.0147V30.6276C26.506 29.5763 27.2038 28.6702 28.2028 28.4243C28.8941 28.2538 29.6064 28.4039 30.1571 28.8355C30.708 29.2673 31.024 29.9162 31.024 30.6159V33.0268C31.024 33.7265 30.708 34.3754 30.1571 34.8071C29.7553 35.122 29.2673 35.2868 28.7643 35.2868ZM28.765 29.8613C28.7025 29.8613 28.635 29.8688 28.5628 29.8866C28.2435 29.9652 28.0119 30.2768 28.0119 30.6276V33.0147C28.0119 33.3655 28.2435 33.6772 28.5628 33.7559C28.8897 33.8361 29.12 33.7063 29.2281 33.6216C29.4124 33.4772 29.518 33.2603 29.518 33.0267V30.6158C29.518 30.3821 29.4123 30.1652 29.2281 30.0209C29.1439 29.9549 28.9855 29.8613 28.765 29.8613Z" fill="#918291"/>
<path d="M25.4758 34.9822C25.7699 34.6882 25.7699 34.2114 25.4758 33.9174C25.1818 33.6234 24.7051 33.6234 24.4111 33.9174C24.117 34.2114 24.117 34.6882 24.4111 34.9822C24.7051 35.2762 25.1818 35.2762 25.4758 34.9822Z" fill="#918291"/>
<path d="M14.6086 19.9932H35.3915V23.1056H14.6086V19.9932Z" fill="#918291"/>
<path d="M32.3795 19.9932H35.3915V23.1056H32.3795V19.9932Z" fill="#7A6D79"/>
<path d="M38.9778 19.9932H11.0221C10.4521 19.9932 9.99011 19.5312 9.99011 18.9611V15.8095H40.0098V18.9611C40.0098 19.5311 39.5478 19.9932 38.9778 19.9932Z" fill="#ACA6D6"/>
<path d="M36.9979 16.8807V18.961C36.9979 19.5311 36.5358 19.9931 35.9658 19.9931H38.9778C39.5479 19.9931 40.0099 19.5311 40.0099 18.961V16.8807H36.9979Z" fill="#978ECB"/>
<path d="M48.3913 9.0294L48.308 9.42295L47.2679 14.3646C46.9576 15.8325 45.6685 16.8807 44.1755 16.8807H5.82449C4.33153 16.8807 3.04237 15.8325 2.73211 14.3646L1.6077 9.09365L48.3913 9.0294Z" fill="#F3EAE6"/>
<path d="M48.308 9.42295L47.2678 14.3647C46.9576 15.8325 45.6684 16.8807 44.1755 16.8807H41.1635C42.6564 16.8807 43.9456 15.8325 44.2557 14.3647L45.3039 9.42295H48.308Z" fill="#E1D3CE"/>
<path d="M48.3651 6.21191H1.63486C0.759759 6.21191 0.0503845 6.93066 0.0503845 7.81738C0.0503845 8.7041 0.759759 9.42285 1.63486 9.42285H48.3651C49.2401 9.42285 49.9495 8.704 49.9495 7.81738C49.9495 6.93076 49.2401 6.21191 48.3651 6.21191Z" fill="#ACA6D6"/>
<path d="M48.3651 6.21291H45.3531C46.2282 6.21291 46.9375 6.93166 46.9375 7.81838C46.9375 8.7051 46.2281 9.42385 45.3531 9.42385H48.3651C49.2401 9.42385 49.9495 8.7051 49.9495 7.81838C49.9495 6.93166 49.2401 6.21291 48.3651 6.21291Z" fill="#978ECB"/>
<path d="M11.6676 43.7881H5.90312C5.33242 43.7881 4.86972 43.3254 4.86972 42.7547V40.5752H12.701V42.7546C12.701 43.3254 12.2383 43.7881 11.6676 43.7881Z" fill="#918291"/>
<path d="M9.68898 40.5752V42.7546C9.68898 43.3253 9.22628 43.788 8.65558 43.788H11.6676C12.2383 43.788 12.701 43.3253 12.701 42.7546V40.5752H9.68898Z" fill="#7A6D79"/>
<path d="M44.0969 43.7881H38.3324C37.7617 43.7881 37.299 43.3254 37.299 42.7547V40.5752H45.1303V42.7546C45.1303 43.3254 44.6677 43.7881 44.0969 43.7881Z" fill="#918291"/>
<path d="M42.1183 40.5752V42.7546C42.1183 43.3253 41.6556 43.788 41.0849 43.788H44.0969C44.6676 43.788 45.1303 43.3253 45.1303 42.7546V40.5752H42.1183Z" fill="#7A6D79"/>
</g>
<defs>
<clipPath id="clip0">
<rect width="50" height="50" fill="white"/>
</clipPath>
</defs>
</svg>
