<svg width="40" height="40" viewBox="0 0 40 40" fill="none" xmlns="http://www.w3.org/2000/svg">
<g clip-path="url(#clip0)">
<path d="M31.7514 40H8.25045C6.91694 40 5.836 38.919 5.836 37.5855V2.41445C5.83592 1.08102 6.91694 0 8.25045 0H31.7515C33.085 0 34.1659 1.08102 34.1659 2.41445V37.5855C34.1659 38.919 33.0849 40 31.7514 40Z" fill="#F3EAE6"/>
<path d="M31.7505 0H31.4266C31.6322 0.355234 31.7505 0.767266 31.7505 1.20727V15.4279C31.7505 28.332 21.2896 38.7928 8.38553 38.7928H6.15881C6.57631 39.5142 7.35592 40 8.24952 40H31.7505C33.084 40 34.165 38.919 34.165 37.5855V2.41445C34.165 1.08102 33.084 0 31.7505 0V0Z" fill="#E1D3CE"/>
<path d="M31.7507 40L28.3594 38.7927L24.5146 40H8.24978C6.91626 40 5.83533 38.919 5.83533 37.5856V34.3948H34.1653V37.5856C34.1653 38.919 33.0842 40 31.7507 40Z" fill="#ACA6D6"/>
<path d="M34.1649 2.41484V37.5852C34.1649 38.9188 33.0844 40 31.7508 40H8.24922C7.35626 40 6.57657 39.5141 6.1586 38.793H8.38594C13.4797 38.793 18.1938 37.1625 22.0328 34.3945C27.9188 30.1523 31.7508 23.2375 31.7508 15.4281V1.20703C31.7508 0.767187 31.632 0.355469 31.4266 0H31.7508C33.0844 0 34.1649 1.08125 34.1649 2.41484Z" fill="#E1D3CE"/>
<path d="M34.1649 34.3945V37.5852C34.1649 38.9187 33.0844 40 31.7508 40L28.3594 38.793L24.5141 40H8.24922C7.35626 40 6.57657 39.5141 6.1586 38.793H8.38594C13.4797 38.793 18.1938 37.1625 22.0328 34.3945H34.1649Z" fill="#978ECB"/>
<path d="M34.165 7.24344H5.83499V2.41445C5.83499 1.08102 6.91601 0 8.24952 0H31.7505C33.0841 0 34.165 1.08102 34.165 2.41445V7.24344Z" fill="#ACA6D6"/>
<path d="M31.7505 0H31.4266C31.6322 0.355234 31.7505 0.767266 31.7505 1.20727V7.24352H34.1649V2.41445C34.165 1.08102 33.084 0 31.7505 0Z" fill="#978ECB"/>
<path d="M8.24952 0C6.91601 0 5.83499 1.08102 5.83499 2.41445V7.24344H15.8837V0L8.24952 0Z" fill="#978ECB"/>
<path d="M31.7505 40H24.5144V37.3727C24.5144 37.0615 24.7666 36.8093 25.0777 36.8093H31.187C31.4982 36.8093 31.7504 37.0616 31.7504 37.3727V40H31.7505Z" fill="#FAF7F7"/>
<path d="M23.1272 4.3461V2.89735C23.1272 2.63063 23.3434 2.41446 23.6101 2.41446H31.2676C31.5343 2.41446 31.7505 2.63063 31.7505 2.89735V4.3461C31.7505 4.61282 31.5343 4.82899 31.2676 4.82899H23.6101C23.3434 4.82899 23.1272 4.61274 23.1272 4.3461Z" fill="#FAF7F7"/>
<path d="M20.3566 4.47692C20.828 4.00552 20.828 3.24124 20.3566 2.76985C19.8852 2.29845 19.1209 2.29845 18.6495 2.76985C18.1781 3.24124 18.1781 4.00552 18.6495 4.47692C19.1209 4.94832 19.8852 4.94831 20.3566 4.47692Z" fill="#FAF7F7"/>
<path d="M13.4692 3.01812H8.24944C7.91608 3.01812 7.64584 2.74788 7.64584 2.41452C7.64584 2.08116 7.91608 1.81093 8.24944 1.81093H13.4692C13.8026 1.81093 14.0728 2.08116 14.0728 2.41452C14.0728 2.74788 13.8026 3.01812 13.4692 3.01812Z" fill="#FAF7F7"/>
<path d="M13.4692 5.43256H8.24944C7.91608 5.43256 7.64584 5.16233 7.64584 4.82897C7.64584 4.49561 7.91608 4.22537 8.24944 4.22537H13.4692C13.8026 4.22537 14.0728 4.49561 14.0728 4.82897C14.0728 5.16233 13.8026 5.43256 13.4692 5.43256Z" fill="#FAF7F7"/>
<path d="M20 29.585C24.8413 29.585 28.7659 25.6604 28.7659 20.8191C28.7659 15.9779 24.8413 12.0533 20 12.0533C15.1588 12.0533 11.2342 15.9779 11.2342 20.8191C11.2342 25.6604 15.1588 29.585 20 29.585Z" fill="#B3DAFE"/>
<path d="M20 27.1705C23.5078 27.1705 26.3514 24.3269 26.3514 20.8191C26.3514 17.3113 23.5078 14.4677 20 14.4677C16.4922 14.4677 13.6486 17.3113 13.6486 20.8191C13.6486 24.3269 16.4922 27.1705 20 27.1705Z" fill="#8AC9FE"/>
<path d="M18.2677 21.3443C18.1132 21.3443 17.9587 21.2854 17.8409 21.1675C17.6051 20.9318 17.6051 20.5496 17.8409 20.3138L20.0984 18.0562C20.3341 17.8205 20.7163 17.8205 20.952 18.0562C21.1877 18.292 21.1877 18.6742 20.952 18.9099L18.6945 21.1675C18.5766 21.2853 18.4221 21.3443 18.2677 21.3443Z" fill="#D8ECFE"/>
<path d="M19.4748 23.7588C19.3204 23.7588 19.1659 23.6998 19.0481 23.582C18.8123 23.3463 18.8123 22.9641 19.0481 22.7283L21.3056 20.4707C21.5413 20.235 21.9234 20.235 22.1591 20.4707C22.3949 20.7064 22.3949 21.0887 22.1591 21.3244L19.9016 23.582C19.7838 23.6998 19.6293 23.7588 19.4748 23.7588Z" fill="#D8ECFE"/>
</g>
<defs>
<clipPath id="clip0">
<rect width="40" height="40" fill="white"/>
</clipPath>
</defs>
</svg>
