<svg width="35" height="35" viewBox="0 0 35 35" fill="none" xmlns="http://www.w3.org/2000/svg">
<path d="M30.0781 5.46875H21.875V10.9375H30.0781V5.46875Z" fill="#C8C8C8"/>
<path d="M17.5 26.7969C13.58 26.7969 10.3906 23.6075 10.3906 19.6875C10.3906 15.7675 13.58 12.5781 17.5 12.5781C21.42 12.5781 24.6094 15.7675 24.6094 19.6875C24.6094 23.6075 21.42 26.7969 17.5 26.7969Z" fill="#C8C8C8"/>
<path d="M30.625 30.5364V5.46875L29.4115 0.546875H5.58852L4.375 5.40148V30.5364L3.82812 32.177V34.4531H31.1719V32.177L30.625 30.5364ZM5.46875 27.8906V11.4844H29.5312V27.8906H27.3438V28.9844H29.5312V30.0781H5.46875V28.9844H26.25V27.8906H5.46875ZM11.4844 6.01562V10.3906H5.46875V6.01562H11.4844ZM29.5312 10.3906H12.5781V6.01562H29.5312V10.3906ZM28.5573 1.64062L29.3776 4.92188H5.62242L6.44273 1.64062H28.5573ZM30.0781 33.3594H4.92188V32.3542L5.31617 31.1719H29.6844L30.0781 32.3542V33.3594Z" fill="#C8C8C8"/>
<path d="M17.5 14.7656C14.7864 14.7656 12.5781 16.9734 12.5781 19.6875C12.5781 22.4016 14.7864 24.6094 17.5 24.6094C19.1412 24.6094 20.6702 23.7748 21.5802 22.4219H24.6094V21.3281H21.875V18.0469H24.6094V16.9531H21.5802C20.6702 15.6002 19.1412 14.7656 17.5 14.7656ZM17.5 23.5156C15.3891 23.5156 13.6719 21.7979 13.6719 19.6875C13.6719 17.5771 15.3891 15.8594 17.5 15.8594C18.8415 15.8594 20.0911 16.573 20.7812 17.722V21.6535C20.0911 22.802 18.8415 23.5156 17.5 23.5156Z" fill="#C8C8C8"/>
<path d="M14.7656 8.75H15.96C16.1864 9.38492 16.788 9.84375 17.5 9.84375C18.212 9.84375 18.8136 9.38492 19.04 8.75H20.2344V7.65625H19.04C18.8136 7.02133 18.212 6.5625 17.5 6.5625C16.788 6.5625 16.1864 7.02133 15.96 7.65625H14.7656V8.75ZM17.5 7.65625C17.8013 7.65625 18.0469 7.90125 18.0469 8.20312C18.0469 8.505 17.8013 8.75 17.5 8.75C17.1987 8.75 16.9531 8.505 16.9531 8.20312C16.9531 7.90125 17.1987 7.65625 17.5 7.65625Z" fill="#C8C8C8"/>
<path d="M24.0625 7.65625H22.9688V8.75H24.0625V7.65625Z" fill="#C8C8C8"/>
<path d="M26.25 7.65625H25.1562V8.75H26.25V7.65625Z" fill="#C8C8C8"/>
<path d="M28.4375 7.65625H27.3438V8.75H28.4375V7.65625Z" fill="#C8C8C8"/>
<path d="M14.2188 2.73438H7.65625V3.82812H14.2188V2.73438Z" fill="#C8C8C8"/>
<path d="M16.4062 2.73438H15.3125V3.82812H16.4062V2.73438Z" fill="#C8C8C8"/>
<path d="M10.3906 7.65625H6.5625V8.75H10.3906V7.65625Z" fill="#C8C8C8"/>
</svg>
