<svg width="50" height="50" viewBox="0 0 50 50" fill="none" xmlns="http://www.w3.org/2000/svg">
<g clip-path="url(#clip0)">
<path d="M38.1948 14.8739L47.7057 24.1098C48.7179 25.0927 48.4523 26.7814 47.1873 27.4061L34.777 33.5355L36.9723 15.3066C37.0439 14.7121 37.7653 14.4567 38.1948 14.8739Z" fill="#978ECB"/>
<path d="M11.8052 14.8739L2.29434 24.1098C1.28223 25.0927 1.54776 26.7813 2.8127 27.406L15.223 33.5354L13.0278 15.3066C12.9562 14.7121 12.2348 14.4567 11.8052 14.8739Z" fill="#978ECB"/>
<path d="M25.1021 20.6002C28.5022 20.6002 31.2585 17.8439 31.2585 14.4438V11.9025L30.7457 12.1577L28.6947 13.1783C26.432 14.3043 23.7723 14.3043 21.5096 13.1783L18.9488 11.9041L18.9458 11.9025V14.4438C18.9458 17.8439 21.702 20.6002 25.1021 20.6002Z" fill="#978ECB"/>
<path d="M34.8069 14.4881L25.8089 7.93703V5.54397C27.1983 5.46457 28.3042 4.31077 28.3042 2.90403V2.71809C28.3042 1.21985 27.0835 0.000999451 25.583 0.000999451H25.4269C23.9264 0.000999451 22.7057 1.21985 22.7057 2.71809C22.7057 3.13625 23.0447 3.47532 23.4629 3.47532C23.8812 3.47532 24.2202 3.13625 24.2202 2.71809C24.2202 2.05491 24.7615 1.51545 25.4268 1.51545H25.5829C26.2483 1.51545 26.7896 2.05491 26.7896 2.71809V2.90403C26.7896 3.52698 26.281 4.03381 25.6559 4.03381C24.9051 4.03381 24.2943 4.64407 24.2943 5.39407V7.86809L16.1061 14.0308C15.7719 14.2823 15.7049 14.7571 15.9564 15.0912C16.2077 15.4253 16.6826 15.4925 17.0167 15.2408L25.0075 9.22688L33.9155 15.7124C34.0499 15.8104 34.2059 15.8575 34.3606 15.8575C34.5945 15.8575 34.8252 15.7495 34.9734 15.5459C35.2195 15.2078 35.145 14.7342 34.8069 14.4881Z" fill="#E19974"/>
<path d="M37.2644 16.3234L38.7789 31.4963V47.9806C38.7789 49.0962 37.8742 49.9999 36.7596 49.9999H13.2403C12.1257 49.9999 11.221 49.0962 11.221 47.9806V16.3376C11.221 15.5097 11.7268 14.7655 12.4962 14.4605L18.946 11.902V14.4434C18.946 17.8439 21.7024 20.6003 25.1019 20.6003C28.5025 20.6003 31.2589 17.8439 31.2589 14.4434V11.902L37.5208 14.4535C38.2811 14.7635 37.2644 15.5026 37.2644 16.3234Z" fill="#ACA6D6"/>
<path d="M37.5209 14.4536L35.3107 13.553C35.589 13.9029 35.75 14.3426 35.75 14.809V27.7436C35.75 39.1991 26.4636 48.4855 15.0081 48.4855H11.2873C11.5119 49.3562 12.3003 50.0001 13.2404 50.0001H36.7597C37.8749 50.0001 38.779 49.096 38.779 47.9807V16.3234C38.7789 15.5026 38.2811 14.7635 37.5209 14.4536Z" fill="#978ECB"/>
<path d="M25.288 30.6518L23.1717 31.5614C23.0161 31.6283 22.8977 31.7601 22.8476 31.9219L22.1668 34.1226C22.0079 34.6362 21.2953 34.674 21.083 34.1801L20.1732 32.0638C20.1063 31.9082 19.9746 31.7897 19.8128 31.7396L17.6121 31.0589C17.0984 30.9 17.0606 30.1874 17.5546 29.975L19.6709 29.0653C19.8265 28.9984 19.9449 28.8667 19.995 28.7049L20.6758 26.5042C20.8347 25.9905 21.5473 25.9527 21.7596 26.4467L22.6693 28.563C22.7362 28.7185 22.868 28.8371 23.0298 28.8871L25.2305 29.5679C25.7442 29.7268 25.782 30.4393 25.288 30.6518Z" fill="white"/>
<path d="M30.5791 41.1861L28.8826 41.9154C28.7579 41.969 28.6629 42.0746 28.6227 42.2043L28.077 43.9685C27.9497 44.3803 27.3784 44.4105 27.2082 44.0146L26.4789 42.3181C26.4253 42.1934 26.3197 42.0983 26.19 42.0582L24.4259 41.5125C24.014 41.3852 23.9838 40.8139 24.3798 40.6437L26.0763 39.9144C26.201 39.8607 26.296 39.7552 26.336 39.6254L26.8817 37.8612C27.0091 37.4494 27.5803 37.4191 27.7506 37.8151L28.4799 39.5116C28.5335 39.6363 28.639 39.7313 28.7688 39.7714L30.533 40.3171C30.9447 40.4446 30.9751 41.0159 30.5791 41.1861Z" fill="white"/>
</g>
<defs>
<clipPath id="clip0">
<rect width="50" height="50" fill="white"/>
</clipPath>
</defs>
</svg>
