<svg width="50" height="50" viewBox="0 0 50 50" fill="none" xmlns="http://www.w3.org/2000/svg">
<path d="M44.7944 23.9431C44.6268 23.9431 44.4583 23.8867 44.3194 23.7712C44.0038 23.5087 43.9608 23.0399 44.2233 22.7244L47.665 18.5872C48.2121 17.9297 48.5133 17.0965 48.5133 16.2411C48.5133 14.2185 46.8677 12.5729 44.845 12.5729H36.8202C33.3539 12.5729 30.5338 9.75273 30.5338 6.28643C30.5338 2.82012 33.3539 0 36.8202 0H49.2566C49.6672 0 50 0.332812 50 0.743262C50 1.15371 49.6672 1.48652 49.2566 1.48652H36.8202C34.1735 1.48652 32.0204 3.63975 32.0204 6.28633C32.0204 8.93291 34.1735 11.0861 36.8202 11.0861H44.845C47.6875 11.0861 49.9999 13.3986 49.9999 16.241C49.9999 17.443 49.5766 18.6139 48.8078 19.5378L45.3661 23.675C45.2192 23.8519 45.0076 23.9431 44.7944 23.9431Z" fill="#A79BA7"/>
<path d="M43.276 26.8967L41.174 24.7953L43.6732 22.2972C44.2536 21.7171 45.1942 21.7171 45.7745 22.2973C46.3551 22.8776 46.3551 23.8189 45.7744 24.3993L43.276 26.8967Z" fill="#B5ADB6"/>
<path d="M14.1191 35.2022L12.0178 37.3041L9.51964 34.8049C8.93956 34.2245 8.93956 33.2839 9.51974 32.7036C10.1001 32.1231 11.0414 32.123 11.6218 32.7037L14.1191 35.2022Z" fill="#B5ADB6"/>
<path d="M35.2393 40.8489H27.0693V37.9955C27.0693 37.5606 27.4219 37.2082 27.8566 37.2082H34.452C34.8868 37.2082 35.2393 37.5607 35.2393 37.9955V40.8489Z" fill="#B5ADB6"/>
<path d="M49.2228 41.6392C47.6181 36.1317 46.0135 30.6242 44.4088 25.1168C44.0957 24.0424 43.0742 23.3345 41.9577 23.4159C36.5689 23.8093 29.4284 25.0832 21.8932 28.7375C18.9629 30.1586 16.4199 31.7229 14.247 33.2645C9.9585 36.5022 6.37227 40.5765 3.70538 45.2404L2.95313 46.5561L1.95743 48.0427L43.8865 46.5561L44.4594 45.3306C45.1411 43.8719 46.6061 42.9398 48.2167 42.9398C48.8969 42.9398 49.3939 42.2974 49.2228 41.6392ZM40.8847 39.6329L26.1916 40.5987C24.1319 40.7341 22.3867 39.1006 22.3867 37.0371V37.037C22.3867 35.7399 23.0895 34.5441 24.2246 33.9157C25.8905 32.9935 27.7784 32.0676 29.8853 31.2138C33.0272 29.9406 35.9566 29.1111 38.5091 28.5629C39.3454 28.3833 40.1732 28.8982 40.3754 29.7292L42.3117 37.6899C42.5428 38.6401 41.8606 39.5688 40.8847 39.6329Z" fill="#FEE97D"/>
<path d="M49.2228 41.6392C47.6181 36.1316 46.0135 30.6242 44.4088 25.1168C44.0966 24.0452 43.0792 23.3342 41.9661 23.4153C41.7727 23.4294 41.5763 23.445 41.3783 23.4614C41.399 23.5167 41.4189 23.5727 41.4356 23.6302C43.0402 29.1376 44.6448 34.6451 46.2495 40.1525C46.4204 40.8099 45.9249 41.4515 45.2459 41.4531C43.6675 41.4569 42.2111 42.2926 41.5428 43.7226C41.1587 44.5443 40.3336 45.0694 39.4265 45.0694H3.80597C3.77277 45.1267 3.7382 45.183 3.70529 45.2404L2.95304 46.5561L1.95734 48.0427L43.8864 46.5561L44.516 45.2092C45.2091 43.8295 46.6407 42.9436 48.2192 42.9397C48.8981 42.9381 49.3936 42.2965 49.2228 41.6392Z" fill="#FEDF30"/>
<path d="M44.1481 50H0C0 48.098 1.54189 46.5561 3.44395 46.5561H44.1481C45.0992 46.5561 45.8701 47.3271 45.8701 48.278C45.8701 49.229 45.0992 50 44.1481 50Z" fill="#B5ADB6"/>
<path d="M44.1482 46.5561H41.1749C42.126 46.5561 42.8969 47.327 42.8969 48.278C42.8969 49.2291 42.126 50 41.1749 50H44.1482C45.0992 50 45.8701 49.2291 45.8701 48.278C45.8701 47.327 45.0992 46.5561 44.1482 46.5561Z" fill="#A79BA7"/>
<path d="M25.4757 40.574C25.4755 40.574 25.4754 40.5739 25.4753 40.5739C23.7431 40.3403 22.3867 38.8562 22.3867 37.0373V37.0372C22.3867 35.74 23.0895 34.5443 24.2246 33.9159C25.8905 32.9936 27.7784 32.0678 29.8853 31.214C33.0272 29.9408 35.9565 29.1113 38.5091 28.5631C38.9135 28.4762 39.3152 28.5529 39.6459 28.7481C39.6463 28.748 39.6468 28.7479 39.6472 28.7478C38.4045 27.1182 37.3745 26.9353 36.9015 26.9239C36.6616 26.9182 36.2865 26.9726 35.5358 27.0765C33.4932 27.3593 32.4406 27.4869 26.912 29.7273C24.8052 30.5812 22.9174 31.507 21.2514 32.4293C20.1162 33.0577 19.4135 34.2534 19.4135 35.5506C19.5214 36.1837 19.7843 37.157 20.4894 38.1038C22.1969 40.3969 25.0248 40.5559 25.4757 40.574Z" fill="#FEDF30"/>
</svg>
