<svg width="50" height="50" viewBox="0 0 50 50" fill="none" xmlns="http://www.w3.org/2000/svg">
<g clip-path="url(#clip0)">
<path d="M33.5318 14.6613C33.1213 14.6613 32.7885 14.3285 32.7885 13.9181V9.03438C32.7885 8.62384 33.1212 8.29102 33.5318 8.29102C33.9424 8.29102 34.2751 8.62384 34.2751 9.03438V13.9181C34.2751 14.3286 33.9424 14.6613 33.5318 14.6613Z" fill="#F07281"/>
<path d="M41.7858 14.6613C41.3753 14.6613 41.0425 14.3285 41.0425 13.9181V9.03438C41.0425 8.62384 41.3752 8.29102 41.7858 8.29102C42.1964 8.29102 42.5291 8.62384 42.5291 9.03438V13.9181C42.5291 14.3286 42.1964 14.6613 41.7858 14.6613Z" fill="#F07281"/>
<path d="M45.4885 50.0003C46.0523 50.0003 46.4442 49.4454 46.2599 48.914C44.3808 43.5 44.2591 39.2144 44.5497 36.1851C44.989 31.6055 46.6177 27.3175 44.1669 23.9894C43.2736 22.7766 42.1781 22.1523 42.0614 20.6548C41.8863 18.4099 44.1695 17.5228 43.9756 15.224C43.86 13.8546 42.8767 12.1182 41.2958 11.8894C39.8957 11.6866 38.3198 12.7088 37.659 14.4618C36.9983 12.7087 35.4223 11.6865 34.0222 11.8894C32.4413 12.1183 31.458 13.8547 31.3424 15.224C31.1485 17.5228 33.4316 18.4099 33.2565 20.6548C33.1397 22.1523 32.0442 22.7766 31.151 23.9894C28.7001 27.3175 30.3289 31.6055 30.7682 36.1851C31.0587 39.2144 30.9371 43.5 29.0579 48.914C28.8735 49.4454 29.2655 50.0003 29.8293 50.0003H45.4885Z" fill="#F58A97"/>
<path d="M46.2597 48.9137C44.3807 43.4997 44.259 39.2141 44.5496 36.1848C44.9889 31.6052 46.6176 27.3172 44.1668 23.9892C43.2735 22.7763 42.178 22.1521 42.0613 20.6544C41.8862 18.4095 44.1693 17.5224 43.9754 15.2236C43.8598 13.8542 42.8765 12.1179 41.2956 11.889C40.6646 11.7976 39.9981 11.9557 39.3955 12.3167C40.3421 12.9665 40.9155 14.198 41.0021 15.2236C41.1961 17.5224 38.913 18.4095 39.0881 20.6544C39.2048 22.1521 40.3003 22.7762 41.1935 23.9892C43.6444 27.3172 42.0156 31.6052 41.5764 36.1848C41.2858 39.2141 41.4074 43.4997 43.2865 48.9137C43.471 49.445 43.0789 50 42.5151 50H45.4884C46.0521 50 46.4442 49.4451 46.2597 48.9137Z" fill="#F07281"/>
<path d="M33.2225 19.9111C33.2624 20.1432 33.277 20.3891 33.2563 20.6544C33.235 20.9285 33.1806 21.1731 33.1008 21.3978H42.2168C42.1371 21.1732 42.0826 20.9286 42.0613 20.6544C42.0406 20.3891 42.0553 20.1432 42.0951 19.9111H33.2225Z" fill="#F07281"/>
<path d="M46.9049 10.0717L38.3343 7.01367V5.55625C39.7389 5.4877 40.8603 4.32715 40.8603 2.91035V2.72266C40.8603 1.22139 39.635 0 38.1288 0H37.9708C36.4647 0 35.2393 1.22139 35.2393 2.72266C35.2393 3.1332 35.572 3.46592 35.9825 3.46592C36.3931 3.46592 36.7259 3.13311 36.7259 2.72266C36.7259 2.04111 37.2844 1.48662 37.9708 1.48662H38.1288C38.8152 1.48662 39.3736 2.04111 39.3736 2.72266V2.91045C39.3736 3.55137 38.8484 4.07285 38.2027 4.07285C37.4556 4.07285 36.8477 4.67949 36.8477 5.4252V7.06211L28.4128 10.0718C28.0262 10.2098 27.8245 10.6351 27.9625 11.0217C28.1004 11.4083 28.5257 11.6096 28.9124 11.472L37.6588 8.35117L46.4053 11.472C46.4878 11.5015 46.5722 11.5154 46.6551 11.5154C46.9605 11.5154 47.2466 11.3258 47.3551 11.0217C47.4932 10.635 47.2916 10.2097 46.9049 10.0717Z" fill="#E19974"/>
<path d="M8.21403 14.6613C7.80348 14.6613 7.47076 14.3285 7.47076 13.9181V9.03438C7.47076 8.62384 7.80348 8.29102 8.21403 8.29102C8.62457 8.29102 8.95739 8.62384 8.95739 9.03438V13.9181C8.95739 14.3286 8.62457 14.6613 8.21403 14.6613Z" fill="#978ECB"/>
<path d="M16.468 14.6613C16.0575 14.6613 15.7247 14.3285 15.7247 13.9181V9.03438C15.7247 8.62384 16.0574 8.29102 16.468 8.29102C16.8786 8.29102 17.2113 8.62384 17.2113 9.03438V13.9181C17.2114 14.3286 16.8787 14.6613 16.468 14.6613Z" fill="#978ECB"/>
<path d="M20.1707 50.0003C20.7344 50.0003 21.1264 49.4454 20.9421 48.914C19.063 43.5 18.9413 39.2144 19.2319 36.1851C19.6712 31.6055 21.2999 27.3175 18.8491 23.9894C17.9558 22.7766 16.8603 22.1523 16.7436 20.6548C16.5685 18.4099 18.8517 17.5228 18.6578 15.224C18.5422 13.8546 17.5589 12.1182 15.978 11.8894C14.5779 11.6866 13.0019 12.7088 12.3412 14.4618C11.6804 12.7087 10.1045 11.6865 8.70437 11.8894C7.12351 12.1183 6.14021 13.8547 6.02459 15.224C5.83064 17.5228 8.11375 18.4099 7.93865 20.6548C7.82185 22.1523 6.72634 22.7766 5.83318 23.9894C3.3823 27.3175 5.01111 31.6055 5.45037 36.1851C5.74089 39.2144 5.61931 43.5 3.74011 48.914C3.55564 49.4454 3.94773 50.0003 4.5115 50.0003H20.1707Z" fill="#ACA6D6"/>
<path d="M20.9421 48.9137C19.063 43.4997 18.9413 39.2141 19.2319 36.1848C19.6712 31.6052 21.2999 27.3172 18.8491 23.9892C17.9558 22.7763 16.8603 22.1521 16.7436 20.6544C16.5685 18.4095 18.8516 17.5224 18.6577 15.2236C18.5421 13.8542 17.5588 12.1179 15.9779 11.889C15.347 11.7976 14.6805 11.9557 14.0778 12.3167C15.0244 12.9665 15.5978 14.198 15.6845 15.2236C15.8784 17.5224 13.5953 18.4095 13.7704 20.6544C13.8871 22.1521 14.9826 22.7762 15.8759 23.9892C18.3267 27.3172 16.6979 31.6052 16.2587 36.1848C15.9681 39.2141 16.0897 43.4997 17.9688 48.9137C18.1533 49.445 17.7612 50 17.1974 50H20.1707C20.7345 50 21.1264 49.4451 20.9421 48.9137Z" fill="#978ECB"/>
<path d="M7.90486 19.9111C7.9447 20.1432 7.95935 20.3891 7.93865 20.6544C7.91726 20.9285 7.86287 21.1731 7.78308 21.3978H16.899C16.8193 21.1732 16.7648 20.9286 16.7435 20.6544C16.7228 20.3891 16.7374 20.1432 16.7773 19.9111H7.90486Z" fill="#978ECB"/>
<path d="M21.5872 10.0717L13.0165 7.01367V5.55625C14.4211 5.4877 15.5425 4.32715 15.5425 2.91035V2.72266C15.5425 1.22139 14.3172 0 12.811 0H12.653C11.1469 0 9.92147 1.22139 9.92147 2.72266C9.92147 3.1332 10.2542 3.46592 10.6647 3.46592C11.0753 3.46592 11.4081 3.13311 11.4081 2.72266C11.4081 2.04111 11.9665 1.48662 12.653 1.48662H12.811C13.4974 1.48662 14.0558 2.04111 14.0558 2.72266V2.91045C14.0558 3.55137 13.5306 4.07285 12.8849 4.07285C12.1378 4.07285 11.5299 4.67949 11.5299 5.4252V7.06211L3.095 10.0718C2.70838 10.2098 2.50672 10.6351 2.64481 11.0217C2.7827 11.4083 3.20799 11.6096 3.59461 11.472L12.341 8.35117L21.0875 11.472C21.17 11.5015 21.2544 11.5154 21.3373 11.5154C21.6427 11.5154 21.9288 11.3258 22.0373 11.0217C22.1754 10.635 21.9738 10.2097 21.5872 10.0717Z" fill="#E19974"/>
</g>
<defs>
<clipPath id="clip0">
<rect width="50" height="50" fill="white"/>
</clipPath>
</defs>
</svg>
